<svg width="30" height="31" viewBox="0 0 30 31" fill="none" xmlns="http://www.w3.org/2000/svg">
<path d="M26.8624 3.24529C22.682 -0.415096 15.8743 -0.415096 11.6982 3.24529L0.115426 13.3793C0.0399821 13.4454 4.10275e-05 13.5348 4.10275e-05 13.628C4.10275e-05 13.7213 0.0399821 13.8107 0.115426 13.8767L1.753 15.3106C1.82785 15.3758 1.92917 15.4125 2.0348 15.4125C2.14043 15.4125 2.24175 15.3758 2.3166 15.3106L13.8994 5.17651C15.3373 3.91752 17.25 3.22586 19.2826 3.22586C21.3151 3.22586 23.2278 3.91752 24.6612 5.17651C26.0991 6.4355 26.889 8.11026 26.889 9.88605C26.889 11.6657 26.0991 13.3366 24.6612 14.5956L12.8565 24.9278L10.9438 26.6026C9.15535 28.1685 6.24855 28.1685 4.46009 26.6026C3.59471 25.8449 3.11986 24.8384 3.11986 23.766C3.11986 22.6935 3.59471 21.6871 4.46009 20.9294L16.1716 10.6787C16.4689 10.4223 16.8595 10.2785 17.2766 10.2785H17.2811C17.6982 10.2785 18.0843 10.4223 18.3772 10.6787C18.6746 10.9391 18.8343 11.281 18.8343 11.6463C18.8343 12.0077 18.6701 12.3496 18.3772 12.6061L8.80476 20.9799C8.72932 21.0459 8.68937 21.1353 8.68937 21.2286C8.68937 21.3218 8.72932 21.4112 8.80476 21.4773L10.4423 22.9111C10.5172 22.9764 10.6185 23.013 10.7241 23.013C10.8298 23.013 10.9311 22.9764 11.0059 22.9111L20.574 14.5334C21.4571 13.7602 21.9408 12.7343 21.9408 11.6424C21.9408 10.5505 21.4527 9.52079 20.574 8.75141C18.75 7.15436 15.7855 7.15825 13.9616 8.75141L12.8255 9.75005L2.25447 19.002C1.53701 19.6266 0.968288 20.3696 0.581291 21.188C0.194295 22.0065 -0.00327368 22.8841 4.10275e-05 23.7699C4.10275e-05 25.569 0.803294 27.2593 2.25447 28.5299C3.75891 29.8433 5.72932 30.5 7.69973 30.5C9.67014 30.5 11.6406 29.8433 13.1406 28.5299L26.8624 16.5229C28.8816 14.751 30 12.3924 30 9.88605C30.0044 7.37585 28.8861 5.01719 26.8624 3.24529Z" fill="#FF516C"/>
</svg>
