<svg width="32" height="33" viewBox="0 0 32 33" fill="none" xmlns="http://www.w3.org/2000/svg">
<path d="M12.9878 19.5122L31 1.5M12.9878 19.5122L18.7189 30.9746C18.7908 31.1314 18.9061 31.2642 19.0512 31.3573C19.1964 31.4505 19.3652 31.5 19.5377 31.5C19.7101 31.5 19.8789 31.4505 20.0241 31.3573C20.1692 31.2642 20.2846 31.1314 20.3564 30.9746L31 1.5M12.9878 19.5122L1.52542 13.7811C1.36864 13.7092 1.23579 13.5939 1.14265 13.4488C1.04951 13.3036 1 13.1348 1 12.9623C1 12.7899 1.04951 12.6211 1.14265 12.4759C1.23579 12.3308 1.36864 12.2154 1.52542 12.1436L31 1.5" stroke="#FF516C" stroke-width="2" stroke-linecap="round" stroke-linejoin="round"/>
</svg>
