<svg viewBox="0 0 11 11" fill="none" xmlns="http://www.w3.org/2000/svg">
<path fill-rule="evenodd" clip-rule="evenodd" d="M3 4.50003C3 4.95966 3.09053 5.41478 3.26642 5.83942C3.44231 6.26406 3.70012 6.6499 4.02513 6.9749C4.35013 7.29991 4.73597 7.55772 5.16061 7.73361C5.58525 7.9095 6.04037 8.00003 6.5 8.00003C6.95963 8.00003 7.41475 7.9095 7.83939 7.73361C8.26403 7.55772 8.64987 7.29991 8.97487 6.9749C9.29988 6.6499 9.55769 6.26406 9.73358 5.83942C9.90947 5.41478 10 4.95966 10 4.50003C10 3.57177 9.63125 2.68153 8.97487 2.02516C8.3185 1.36878 7.42826 1.00003 6.5 1.00003C5.57174 1.00003 4.6815 1.36878 4.02513 2.02516C3.36875 2.68153 3 3.57177 3 4.50003ZM3.691 8.01603C4.58958 8.73391 5.72894 9.08049 6.87507 8.98457C8.0212 8.88865 9.0871 8.35753 9.85386 7.50027C10.6206 6.64302 11.03 5.52471 10.998 4.37502C10.966 3.22533 10.495 2.13153 9.68177 1.31827C8.8685 0.504997 7.7747 0.0339939 6.62501 0.00198856C5.47532 -0.0300168 4.35701 0.379405 3.49976 1.14617C2.6425 1.91293 2.11138 2.97883 2.01546 4.12496C1.91954 5.27109 2.26612 6.41045 2.984 7.30903L0.146001 10.146C0.0995129 10.1925 0.0626366 10.2477 0.0374775 10.3084C0.0123184 10.3692 -0.000630379 10.4343 -0.000630379 10.5C-0.000630379 10.5658 0.0123184 10.6309 0.0374775 10.6916C0.0626366 10.7524 0.0995129 10.8075 0.146001 10.854C0.192489 10.9005 0.247678 10.9374 0.308417 10.9626C0.369157 10.9877 0.434257 11.0007 0.500001 11.0007C0.565745 11.0007 0.630845 10.9877 0.691585 10.9626C0.752324 10.9374 0.807513 10.9005 0.854001 10.854L3.69 8.01603H3.691Z" fill="#4B4B55"/>
</svg>
